<svg xmlns="http://www.w3.org/2000/svg" version="1.0" preserveAspectRatio="xMidYMid meet" viewBox="48.12 17.72 2586.76 248.78">

<g transform="translate(0.000000,288.000000) scale(0.100000,-0.100000)" fill="#000000" stroke="none">
<path d="M6880 2700 c-5642 -5 -5958 -6 -6006 -23 -185 -63 -309 -167 -367 -309 -22 -53 -22 -56 -25 -882 -2 -725 -1 -836 13 -889 45 -175 191 -304 411 -363 67 -19 391 -19 12509 -19 11914 0 12443 1 12510 18 176 45 322 156 387 293 l33 69 3 839 c2 746 1 845 -14 895 -44 155 -168 274 -349 338 -79 27 -84 28 -345 30 -569 6 -13114 8 -18760 3z m3036 -61 c-39 -22 -84 -50 -100 -62 l-31 -22 -4415 -5 -4415 -5 -58 -24 c-86 -34 -156 -95 -195 -170 l-32 -63 2 -837 3 -836 25 -48 c44 -86 148 -163 254 -187 31 -7 1473 -10 4425 -10 l4380 0 79 -53 c44 -28 88 -57 98 -64 26 -16 -8891 -19 -8982 -2 -160 28 -292 108 -367 221 -71 109 -68 59 -65 1004 l3 849 28 59 c15 33 43 79 62 102 68 82 217 163 340 183 28 5 2070 9 4540 10 l4490 1 -69 -41z m5972 -21 l-3 -63 -2470 0 -2470 0 -3 49 c-2 27 -1 55 2 62 5 12 387 14 2476 14 l2471 0 -3 -62z m10072 30 c41 -14 98 -39 125 -54 69 -38 154 -128 190 -199 l30 -60 0 -875 0 -875 -30 -60 c-35 -69 -119 -159 -188 -199 -26 -16 -80 -40 -120 -55 l-72 -26 -4510 -2 c-3502 -1 -4506 1 -4491 10 11 7 53 35 95 62 l76 50 4411 5 4410 5 76 38 c52 25 91 54 121 87 81 90 77 40 77 960 0 914 3 869 -72 955 -48 54 -107 91 -189 116 -59 18 -179 19 -4453 19 l-4391 0 -40 27 c-22 15 -69 44 -105 65 l-65 38 4520 -2 4520 -3 75 -27z m-16220 -125 c-1 -5 -21 -30 -45 -57 l-45 -48 -73 18 c-90 23 -204 23 -282 0 -117 -34 -190 -82 -331 -217 -202 -193 -300 -249 -432 -249 -37 1 -80 7 -96 13 -30 13 -30 12 -102 -72 -114 -136 -234 -224 -348 -257 -36 -10 -66 -21 -66 -25 0 -3 12 -12 26 -20 14 -7 36 -26 49 -41 13 -15 29 -28 35 -28 17 0 151 70 211 111 31 21 83 67 115 102 l60 65 86 -5 c69 -5 99 -2 154 15 132 40 310 171 419 307 70 88 135 142 211 177 39 18 67 23 134 23 97 0 157 -17 244 -70 50 -30 58 -32 63 -17 32 99 115 202 206 255 l46 27 3439 0 3439 0 59 -38 c88 -57 154 -143 188 -245 5 -16 9 -16 43 7 63 42 162 77 233 83 132 11 257 -53 362 -186 101 -128 272 -263 395 -312 48 -20 77 -24 169 -24 l111 0 53 -58 c61 -66 148 -131 235 -175 95 -47 102 -47 129 -15 13 16 36 35 50 42 14 8 26 17 26 20 0 3 -28 14 -63 25 -122 37 -275 154 -381 293 l-39 51 -33 -14 c-50 -21 -153 -18 -218 7 -86 32 -165 90 -309 227 -140 135 -214 183 -332 218 -78 22 -192 23 -282 0 l-71 -18 -44 47 c-23 26 -44 51 -46 56 -2 5 1810 9 4355 9 3836 0 4366 -2 4416 -15 116 -30 198 -90 241 -178 l26 -51 0 -825 0 -826 -24 -50 c-38 -83 -129 -152 -241 -181 -41 -11 -805 -14 -4408 -14 l-4358 0 37 47 c21 27 39 50 41 52 1 2 28 -3 60 -12 219 -60 423 0 593 174 240 247 394 323 553 275 l46 -14 28 37 c57 77 171 186 242 233 50 32 105 58 163 75 l88 27 -46 17 c-26 10 -60 30 -75 45 l-28 26 -83 -40 c-101 -49 -200 -122 -261 -194 l-46 -54 -61 10 c-79 13 -164 -2 -250 -43 -91 -44 -228 -149 -297 -228 -112 -129 -177 -189 -238 -219 -54 -26 -70 -29 -160 -29 -103 0 -123 6 -286 93 -4 1 -20 -26 -37 -62 -35 -74 -97 -146 -161 -188 l-45 -28 -3461 0 -3460 0 -40 26 c-22 15 -53 39 -69 53 -38 35 -103 135 -111 171 -4 17 -9 30 -12 30 -2 0 -48 -21 -100 -48 -96 -47 -97 -47 -197 -47 -92 0 -106 3 -160 30 -62 31 -125 88 -239 217 -170 193 -383 299 -546 272 l-61 -10 -60 67 c-66 74 -163 143 -266 190 l-67 30 -26 -24 c-31 -29 -83 -57 -108 -58 -10 0 25 -15 77 -32 53 -18 117 -45 144 -61 57 -33 199 -167 252 -236 l36 -47 46 13 c153 46 283 -14 522 -241 132 -127 206 -177 310 -211 74 -24 233 -24 313 0 l58 18 22 -29 c12 -15 30 -36 40 -45 9 -10 17 -20 17 -23 0 -3 -1962 -5 -4359 -5 -4242 0 -4361 1 -4420 19 -115 36 -192 98 -232 185 -18 39 -19 85 -19 867 l0 825 26 52 c27 55 85 111 147 143 97 51 -176 48 4505 48 2399 1 4362 -2 4362 -6z m6148 -2221 l3 -62 -2473 2 -2473 3 -3 49 c-2 27 -1 55 2 62 5 12 383 14 2473 12 l2468 -3 3 -63z"/>
<path d="M7376 2439 c-134 -38 -227 -95 -286 -176 -23 -31 -39 -43 -57 -43 -38 0 -87 -27 -106 -59 -11 -19 -17 -51 -17 -94 0 -50 -5 -71 -23 -98 -40 -60 -121 -84 -205 -60 -17 5 -32 8 -32 6 0 -2 15 -18 33 -34 44 -42 85 -54 174 -49 75 3 76 4 113 45 35 40 50 45 50 17 0 -53 106 -244 135 -244 9 0 39 10 66 21 l50 22 -55 54 c-75 74 -91 111 -91 203 1 65 6 85 37 152 47 99 110 167 191 204 58 27 70 29 197 29 126 0 139 -2 192 -27 117 -55 175 -123 204 -240 15 -59 19 -65 38 -60 41 9 87 54 116 111 l29 58 84 5 c149 8 247 76 247 173 0 31 -6 47 -24 64 -32 30 -94 38 -134 17 -49 -25 -66 -58 -58 -113 l6 -46 -79 6 c-65 4 -101 14 -193 52 -62 26 -162 65 -223 86 -101 36 -119 39 -210 38 -68 0 -122 -7 -169 -20z"/>
<path d="M19090 2427 c-52 -19 -153 -58 -225 -87 -108 -45 -143 -54 -207 -58 l-77 -5 6 50 c5 46 3 53 -25 84 -28 31 -35 34 -85 34 -73 0 -107 -29 -107 -90 0 -98 96 -164 248 -173 l82 -5 32 -59 c32 -60 74 -101 116 -111 18 -4 23 0 27 21 23 111 68 191 133 236 89 61 126 71 272 71 127 0 139 -2 195 -28 85 -40 145 -103 191 -201 72 -152 58 -252 -47 -356 l-58 -58 50 -21 c28 -12 58 -21 67 -19 26 5 87 104 117 191 l28 79 24 -31 c37 -47 72 -61 156 -61 68 0 79 3 123 33 60 41 69 60 22 46 -85 -24 -165 -1 -205 60 -18 27 -23 48 -23 100 -1 36 -6 76 -14 89 -18 33 -66 62 -101 62 -25 0 -38 9 -67 49 -48 64 -141 124 -241 158 -65 21 -106 27 -197 30 -110 4 -119 2 -210 -30z"/>
<path d="M7457 1590 c-14 -11 -45 -31 -68 -44 l-42 -24 39 -11 c49 -14 263 -36 271 -27 10 10 -29 86 -55 107 -34 26 -111 26 -145 -1z"/>
<path d="M19216 1577 c-52 -68 -58 -123 -22 -195 31 -62 52 -78 108 -85 35 -5 49 -3 59 9 7 9 38 30 68 47 l55 31 -44 14 c-25 7 -88 16 -140 20 -94 7 -95 7 -98 35 -3 21 1 27 15 27 44 0 201 21 231 31 l34 11 -49 28 c-27 16 -55 35 -62 44 -10 11 -31 16 -72 16 -54 0 -60 -2 -83 -33z"/>
<path d="M7410 1403 c-56 -13 -62 -17 -46 -27 10 -6 44 -27 75 -47 50 -33 61 -36 101 -30 37 5 49 13 77 49 51 67 47 72 -54 71 -49 0 -117 -8 -153 -16z"/>
<path d="M7101 1200 c-37 -57 -81 -155 -81 -184 0 -27 -15 -25 -45 8 -62 68 -183 74 -271 14 -55 -38 -50 -45 29 -41 126 7 177 -39 182 -167 2 -45 9 -80 20 -96 17 -26 70 -54 101 -54 10 0 45 -28 78 -63 106 -109 263 -171 431 -171 106 0 178 20 365 99 143 62 223 85 292 85 l49 0 -7 -50 c-6 -47 -5 -51 29 -85 29 -29 42 -35 76 -35 47 0 95 21 105 45 23 61 -10 142 -73 179 -43 25 -132 46 -198 46 l-52 0 -32 61 c-45 84 -126 137 -143 93 -3 -9 -6 -26 -6 -38 0 -38 -58 -142 -102 -181 -85 -78 -228 -115 -364 -96 -169 24 -242 77 -317 230 -75 153 -60 258 50 362 30 28 53 53 51 54 -8 8 -101 45 -113 45 -7 0 -31 -27 -54 -60z"/>
<path d="M19625 1242 c-67 -28 -67 -29 -10 -83 99 -93 120 -189 68 -317 -77 -196 -192 -274 -403 -275 -190 -1 -326 79 -381 223 -10 28 -19 62 -19 75 0 35 -25 42 -66 20 -35 -18 -90 -91 -100 -131 -5 -19 -14 -22 -87 -27 -151 -9 -239 -62 -254 -151 -12 -75 24 -116 102 -116 77 0 123 55 111 130 l-6 40 54 0 c65 0 181 -35 301 -90 47 -22 122 -51 168 -66 212 -69 467 -10 614 142 42 44 69 64 86 64 31 0 88 38 104 70 7 14 13 54 13 89 0 119 57 167 187 159 84 -6 84 3 4 50 -63 37 -167 39 -223 4 -20 -13 -40 -32 -43 -43 -10 -32 -26 -17 -45 41 -27 90 -99 211 -123 209 -7 0 -30 -8 -52 -17z"/>
</g>
</svg>