<svg width="2480" height="264" viewBox="0 0 2480 264" fill="none" xmlns="http://www.w3.org/2000/svg">
<path d="M159.912 3.66274C150.433 5.46967 129.897 17.7568 113.31 31.4895C96.7235 44.8608 75.3976 60.039 65.1295 65.0984C54.8615 70.1578 43.0137 82.0836 39.8543 91.1182C35.905 100.153 25.637 113.163 16.1588 119.668L0.361755 131.955L19.3182 144.603C29.5862 151.47 38.2746 161.95 38.2746 167.732C38.2746 177.851 65.1295 202.425 76.9773 202.425C79.3468 202.425 86.4555 206.762 91.9844 212.183C115.68 237.48 138.586 251.574 164.651 257.356C190.716 263.5 258.643 263.861 1241.22 263.861C2415.73 263.861 2332 265.668 2361.23 237.841C2383.34 215.797 2395.19 207.123 2415.73 197.004C2425.2 192.306 2436.26 180.742 2440.21 170.985C2444.16 161.589 2454.43 148.94 2463.91 143.519L2479.7 133.4L2459.96 114.97C2448.9 104.49 2439.42 92.2024 2439.42 87.143C2439.42 82.445 2429.94 72.6875 2418.09 65.4598C2381.76 44.138 2362.02 30.0439 2356.49 22.0934C2354.12 18.1182 2342.27 11.2519 2331.21 7.27661C2310.68 0.0488795 2303.57 0.0488795 1243.59 0.410266C656.728 0.410266 168.6 1.85581 159.912 3.66274ZM2316.2 20.2865C2323.31 23.1776 2328.84 28.237 2328.84 30.7667C2328.84 33.6578 2335.16 38.7172 2343.85 42.3311C2351.75 45.9449 2361.23 52.8113 2364.39 57.8707C2367.54 62.5687 2378.6 69.4351 2388.87 73.4103C2399.93 77.0242 2409.41 85.336 2411.78 93.2865C2414.94 100.514 2422.04 112.44 2429.15 119.668C2439.42 131.593 2439.42 133.762 2429.15 141.351C2422.83 146.049 2414.94 156.891 2411.78 165.564C2408.62 174.237 2399.14 183.995 2390.45 187.608C2375.44 194.475 2357.28 207.846 2333.58 230.613C2327.26 236.757 2312.25 243.985 2301.2 245.792C2273.55 250.49 204.933 250.851 177.288 245.792C164.651 243.623 155.173 238.564 152.013 232.42C148.854 226.999 140.165 219.41 132.267 215.797C123.578 212.183 117.26 207.123 117.26 204.594C117.26 202.064 106.992 194.836 93.5641 188.693C78.557 181.465 69.8686 173.514 69.8686 167.009C69.8686 161.589 62.76 151.108 54.8615 143.519C40.6441 130.509 40.6441 129.787 54.8615 116.777C62.76 109.188 69.8686 98.7073 69.8686 92.9252C69.8686 86.0588 77.7671 79.5539 93.5641 73.0489C106.992 67.6281 117.26 60.7618 117.26 57.5093C117.26 54.2568 124.368 48.836 133.057 45.2222C141.745 41.6083 148.854 36.9103 148.854 34.742C148.854 32.5736 154.383 26.7915 161.491 22.4548L173.339 14.5043H1238.85C2196.94 14.5043 2305.15 15.2271 2316.2 20.2865Z" fill="black"/>
<path d="M178.078 27.8762C174.919 28.9603 172.549 32.9356 172.549 36.5494C172.549 40.1633 163.861 47.0296 152.803 52.089C141.745 57.1485 133.057 64.3762 133.057 67.99C133.057 71.6039 124.368 76.6633 113.31 78.8316C99.883 81.7227 93.5642 86.0594 93.5642 91.8415C93.5642 96.5396 88.0352 107.02 81.7164 115.693C71.4484 129.064 71.4484 133.04 81.7164 147.495C88.0352 156.891 93.5642 167.733 95.1439 171.708C96.7236 175.683 106.202 180.743 117.26 183.272C128.318 185.802 137.006 189.777 137.796 192.307C137.796 194.837 139.376 199.896 139.376 203.148C140.165 206.401 148.064 210.376 156.752 211.46C167.81 212.906 172.549 216.881 172.549 224.109C172.549 229.891 178.078 234.95 185.187 236.396C192.296 237.48 669.365 238.564 1245.96 238.564C2050.81 238.564 2296.46 237.48 2303.57 234.228C2309.1 231.698 2313.05 226.639 2313.05 222.302C2313.05 218.327 2320.15 212.906 2328.84 210.376C2339.11 207.485 2344.64 202.064 2344.64 195.198C2344.64 188.332 2348.59 184.356 2355.7 184.356C2374.65 184.356 2392.03 173.515 2392.03 162.312C2392.03 156.168 2397.56 146.772 2403.88 140.99C2414.15 131.955 2414.15 129.426 2403.88 120.391C2397.56 114.97 2392.03 106.297 2392.03 101.238C2392.03 90.0346 2371.49 75.9405 2355.7 75.9405C2349.38 75.9405 2344.64 72.3267 2344.64 66.9059C2344.64 62.2079 2338.32 55.3415 2329.63 51.7277C2321.73 48.1138 2313.05 40.8861 2309.89 35.1039L2305.15 25.3465H1243.59C660.677 25.3465 180.448 26.4306 178.078 27.8762ZM2284.61 31.1286C2291.72 32.5742 2297.25 37.6336 2297.25 43.4158C2297.25 50.2821 2301.99 53.896 2313.05 55.3415C2324.1 56.7871 2328.84 60.4009 2328.84 68.3514C2328.84 76.6633 2333.58 80.2772 2350.17 83.891C2366.75 87.5049 2373.07 92.2029 2377.81 103.767C2380.97 112.079 2386.5 121.837 2391.24 125.45C2395.98 130.148 2395.19 134.846 2387.29 140.99C2381.76 146.049 2377.02 155.084 2376.23 161.589C2376.23 169.901 2371.49 174.599 2358.86 177.49C2348.59 180.02 2339.11 181.104 2336.74 180.381C2334.37 179.658 2332 184.356 2330.42 190.5C2328.84 197.728 2321.73 203.871 2313.05 206.04C2305.15 207.847 2297.25 213.99 2295.67 219.411L2293.3 229.53L1241.22 230.614L188.346 231.337V220.856C188.346 213.267 183.607 209.292 172.549 207.847C163.861 206.762 154.383 201.342 152.013 195.921C144.115 178.936 141.745 177.129 126.738 177.129C115.68 177.129 110.151 172.069 101.463 154.361C95.1439 142.074 91.1946 130.148 91.9845 128.342C92.7743 126.173 97.5134 115.693 103.832 104.851C112.521 88.9504 118.05 84.6138 131.477 83.891C144.904 82.8069 148.854 80.2772 148.854 72.3267C148.854 65.099 155.173 59.6782 168.6 55.7029C180.448 52.089 188.346 46.3069 188.346 41.2475C188.346 34.3811 193.085 32.9356 218.361 31.49C267.331 29.3217 2271.18 28.9603 2284.61 31.1286Z" fill="black"/>
</svg>
